<?xml version="1.0" encoding="UTF-8"?>
<svg width="538px" height="128px" viewBox="0 0 538 128" version="1.1" xmlns="http://www.w3.org/2000/svg" xmlns:xlink="http://www.w3.org/1999/xlink">
    <title>Untitled</title>
    <g id="Page-1" stroke="none" stroke-width="1" fill="none" fill-rule="evenodd">
        <g id="Group-2">
            <g id="Creative-Tail-rocket" fill-rule="nonzero">
                <circle id="Oval" fill="#263740" cx="64" cy="64" r="64"></circle>
                <path d="M3.902,86.052 C12.889,110.533 36.404,128 64,128 C64.688,128 65.368,127.97 66.051,127.948 C57.064,103.467 33.549,86 5.953,86 C5.266,86 4.585,86.03 3.902,86.052 Z" id="Path" fill="#E6E6E6"></path>
                <g id="Group" transform="translate(39.795248, 0.000127)">
                    <path d="M26.4337524,40.3948726 C24.4627524,37.9228726 18.9307524,39.0998726 12.6007524,43.3348726 C8.20175242,46.4388726 0.870752421,59.5638726 0.0757524214,62.6248726 C-0.719247579,65.6858726 4.97775242,64.9318726 6.19675242,64.2148726 C8.12575242,63.0818726 13.5717524,54.6948726 14.1157524,53.8578726 C14.6607524,53.0198726 18.2647524,52.9748726 21.0327524,52.3868726 C21.8257524,49.3258726 25.3457524,42.0718726 26.4337524,40.3948726 Z" id="Path" fill="#CC584C"></path>
                    <path d="M48.2387524,54.5568726 C51.3007524,55.3508726 52.4757524,60.8838726 51.1787524,68.3888726 C50.1307524,73.6708726 41.1227524,85.7068726 38.6527524,87.6778726 C36.1787524,89.6518726 34.5517524,84.1388726 34.7097524,82.7358726 C34.9607524,80.5108726 40.4067524,72.1268726 40.9517524,71.2878726 C41.4967524,70.4498726 40.0697524,67.1388726 39.4797524,64.3718726 C41.9537524,62.3968726 47.1497524,56.2328726 48.2387524,54.5568726 Z" id="Path" fill="#CC584C"></path>
                    <path d="M67.8377524,0.509872557 C65.3197524,-1.12412744 48.9727524,0.183872557 36.4427524,19.4728726 C26.0947524,35.4088726 20.1917524,51.8428726 19.9407524,54.0648726 C22.4577524,55.7008726 29.1667524,60.0558726 29.1667524,60.0558726 C29.1667524,60.0558726 35.8767524,64.4118726 38.3927524,66.0458726 C40.3227524,64.9138726 53.4787524,51.9958726 63.2847524,36.8998726 C75.8087524,17.6088726 70.3507524,2.14487256 67.8377524,0.509872557 Z" id="Path" fill="#E6E6E6"></path>
                    <circle id="Oval" fill="#263740" cx="51.4967524" cy="25.6698726" r="10"></circle>
                    <path d="M48.2277524,30.7018726 C45.4547524,28.8978726 44.6627524,25.1768726 46.4627524,22.4018726 C48.2667524,19.6268726 51.9867524,18.8358726 54.7647524,20.6358726 C57.5367524,22.4388726 58.3277524,26.1598726 56.5287524,28.9368726 C54.7257524,31.7128726 51.0057524,32.5038726 48.2277524,30.7018726 Z" id="Path" fill="#C2E2F2"></path>
                    <path d="M61.3007524,10.5738726 C64.3807524,12.5738726 67.7497524,13.7728726 71.1637524,14.2318726 C71.5157524,6.55387256 69.2277524,1.41387256 67.8377524,0.506872557 C66.4427524,-0.395127443 60.8167524,-0.393127443 53.9457524,3.04887256 C55.7537524,5.98187256 58.2207524,8.57287256 61.3007524,10.5738726 Z" id="Path" fill="#CC584C"></path>
                    <path d="M36.8027524,72.1668726 C36.2027524,73.0898726 34.9577524,73.3548726 34.0347524,72.7558726 L15.5847524,60.7758726 C14.6617524,60.1748726 14.3967524,58.9298726 14.9957524,58.0068726 L17.1757524,54.6528726 C17.7757524,53.7308726 19.0197524,53.4648726 19.9437524,54.0648726 L38.3927524,66.0468726 C39.3167524,66.6468726 39.5807524,67.8908726 38.9827524,68.8158726 L36.8027524,72.1668726 Z" id="Path" fill="#CC584C"></path>
                    <path d="M22.7947524,60.6878726 C22.1947524,61.6128726 21.4587524,62.7848726 20.6907524,64.0898726 L29.7697524,69.9858726 C30.6507524,68.7528726 31.4207524,67.6008726 32.0217524,66.6768726 C32.6227524,65.7528726 33.3577524,64.5808726 34.1257524,63.2768726 L25.0487524,57.3808726 C24.1657524,58.6128726 23.3937524,59.7628726 22.7947524,60.6878726 Z" id="Path" fill="#BF5347"></path>
                    <path d="M17.2617524,61.8628726 C10.6447524,72.0508726 2.31275242,92.6938726 6.71275242,95.5508726 C11.1107524,98.4078726 26.5787524,82.4028726 33.1967524,72.2098726 L17.2617524,61.8628726 Z" id="Path" fill="#FFD464"></path>
                    <path d="M18.9387524,62.9518726 C12.3217524,73.1398726 9.77375242,83.2318726 13.2467524,85.4868726 C16.7207524,87.7428726 24.9017524,81.3088726 31.5187524,71.1218726 L18.9387524,62.9518726 Z" id="Path" fill="#F2B255"></path>
                    <ellipse id="Oval" fill="#CC584C" transform="translate(27.418850, 63.685086) rotate(-147.002794) translate(-27.418850, -63.685086) " cx="27.4188495" cy="63.6850859" rx="3.50001199" ry="16.9990582"></ellipse>
                </g>
                <g id="Group" transform="translate(15.683515, 90.056127)">
                    <ellipse id="Oval" fill="#CCCCCC" transform="translate(7.252650, 6.427800) rotate(-157.882589) translate(-7.252650, -6.427800) " cx="7.25265" cy="6.4278" rx="5.99990763" ry="4.49993072"></ellipse>
                    <path d="M7.5764847,10.6128729 C4.5064847,9.3658729 2.7754847,6.4878729 3.7114847,4.1848729 C4.2464847,2.8668729 5.5514847,2.0408729 7.1354847,1.7948729 C4.6974847,1.4448729 2.4614847,2.3398729 1.7114847,4.1848729 C0.7754847,6.4878729 2.5064847,9.3658729 5.5764847,10.6128729 C6.8894847,11.1458729 8.2224847,11.2738729 9.4054847,11.0918729 C8.7984847,11.0038729 8.1854847,10.8608729 7.5764847,10.6128729 Z" id="Path" fill="#B3B3B3"></path>
                </g>
                <g id="Group" transform="translate(34.106441, 96.022833)">
                    <ellipse id="Oval" fill="#CCCCCC" transform="translate(4.863297, 4.875610) rotate(-134.493545) translate(-4.863297, -4.875610) " cx="4.8632971" cy="4.8756096" rx="3.9358377" ry="2.95087831"></ellipse>
                    <path d="M3.9445587,7.4341673 C2.4235587,5.8851673 2.1315587,3.7021673 3.2945587,2.5591673 C3.9585587,1.9041673 4.9585587,1.7481673 5.9775587,2.0121673 C4.6015587,1.1671673 3.0225587,1.1201673 2.0905587,2.0351673 C0.9275587,3.1801673 1.2195587,5.3611673 2.7415587,6.9111673 C3.3925587,7.5741673 4.1635587,8.0001673 4.9235587,8.1961673 C4.5795587,7.9891673 4.2475587,7.7431673 3.9445587,7.4341673 Z" id="Path" fill="#B3B3B3"></path>
                </g>
                <g id="Group" transform="translate(29.952934, 105.929541)">
                    <ellipse id="Oval" fill="#CCCCCC" transform="translate(6.960180, 5.929805) rotate(-164.229315) translate(-6.960180, -5.929805) " cx="6.96018" cy="5.9298048" rx="5.96826557" ry="4.47619918"></ellipse>
                    <path d="M7.7580656,10.026459 C4.5890656,9.130459 2.5630656,6.474459 3.2370656,4.095459 C3.6190656,2.733459 4.8190656,1.777459 6.3580656,1.359459 C3.9110656,1.281459 1.7960656,2.409459 1.2570656,4.315459 C0.5840656,6.693459 2.6110656,9.350459 5.7820656,10.245459 C7.1380656,10.629459 8.4700656,10.608459 9.6210656,10.299459 C9.0140656,10.279459 8.3890656,10.205459 7.7580656,10.026459 Z" id="Path" fill="#B3B3B3"></path>
                </g>
                <path d="M27.953,21 C27.953,25 26.953,26 22.953,26 C26.953,26 27.953,27 27.953,31 C27.953,27 28.953,26 32.953,26 C28.953,26 27.953,25 27.953,21 Z" id="Path" fill="#FFD464"></path>
                <path d="M14.953,50 C14.953,54 13.953,55 9.953,55 C13.953,55 14.953,56 14.953,60 C14.953,56 15.953,55 19.953,55 C15.953,55 14.953,54 14.953,50 Z" id="Path" fill="#FFD464"></path>
                <path d="M28.953,68 C28.953,72 27.953,73 23.953,73 C27.953,73 28.953,74 28.953,78 C28.953,74 29.953,73 33.953,73 C29.953,73 28.953,72 28.953,68 Z" id="Path" fill="#FFD464"></path>
                <path d="M81.953,101 C81.953,105 80.953,106 76.953,106 C80.953,106 81.953,107 81.953,111 C81.953,107 82.953,106 86.953,106 C82.953,106 81.953,105 81.953,101 Z" id="Path" fill="#FFD464"></path>
                <path d="M117.953,78 C117.953,82 116.953,83 112.953,83 C116.953,83 117.953,84 117.953,88 C117.953,84 118.953,83 122.953,83 C118.953,83 117.953,82 117.953,78 Z" id="Path" fill="#FFD464"></path>
                <path d="M114.953,43 C114.953,47 113.953,48 109.953,48 C113.953,48 114.953,49 114.953,53 C114.953,49 115.953,48 119.953,48 C115.953,48 114.953,47 114.953,43 Z" id="Path" fill="#FFD464"></path>
                <path d="M64.953,7 C64.953,11 63.953,12 59.953,12 C63.953,12 64.953,13 64.953,17 C64.953,13 65.953,12 69.953,12 C65.953,12 64.953,11 64.953,7 Z" id="Path" fill="#FFD464"></path>
                <path d="M47.953,28 C47.953,32 46.953,33 42.953,33 C46.953,33 47.953,34 47.953,38 C47.953,34 48.953,33 52.953,33 C48.953,33 47.953,32 47.953,28 Z" id="Path" fill="#FFD464"></path>
            </g>
            <text id="ResumeRocket" font-family="Krungthep" font-size="48" font-weight="bold" fill="#17141F">
                <tspan x="154" y="86">ResumeRocket</tspan>
            </text>
        </g>
    </g>
</svg>